<?xml version="1.0" encoding="utf-8"?>
<!-- Generator: Adobe Illustrator 22.0.1, SVG Export Plug-In . SVG Version: 6.00 Build 0)  -->
<svg version="1.1" id="Layer_1" xmlns="http://www.w3.org/2000/svg" xmlns:xlink="http://www.w3.org/1999/xlink" x="0px" y="0px"
	 viewBox="0 0 119.4 67.5" style="enable-background:new 0 0 119.4 67.5;" xml:space="preserve">
<style type="text/css">
	.st0{fill:#123A87;}
	.st1{fill:#F36C21;}
</style>
<g>
	<path class="st0" d="M7.9,17.4c2.5-2.3,5.5-3.5,9.6-3.5v7.5c-4.3,0.2-7.3,1.4-9.6,3.9v16.3H0V14.3h7.9V17.4z"/>
	<path class="st0" d="M20.3,4.7C20.3,2,22.4,0,25.1,0c2.6,0,4.7,2,4.7,4.7c0,2.6-2.1,4.6-4.7,4.6C22.4,9.2,20.3,7.3,20.3,4.7
		L20.3,4.7z M29.1,41.6h-7.9V14.3h7.9V41.6z"/>
	<path class="st0" d="M39.9,32.2c0.5,2.9,2.6,4,5.7,4c2.7,0,4.6-0.9,4.6-2.3c0-1-0.9-1.9-2.7-2.2l-5.9-1c-4.2-0.7-8-3-8-8
		c0-5.7,4.8-9.1,11.8-9.1c4.7,0,11.7,1.6,12.3,9.3l-7.2,0.1c-0.2-2.5-2.5-3.4-5-3.4c-2.7,0-4,1.1-4,2.3c0,1,0.7,2.1,3.2,2.6l5,0.8
		c4.4,0.8,8.3,2.9,8.3,8c0,6.1-5.3,9.2-12.3,9.2c-6.3,0-12.3-2.6-12.9-10.3L39.9,32.2z"/>
	<path class="st0" d="M88.6,30H68.4c0.6,3.2,2.7,5.7,7.1,5.7c2.2,0,3.8-0.7,4.6-2.1h8.3c-1.5,5.2-6.6,8.8-13.1,8.8
		c-8.8,0-14.7-6.3-14.7-14.5c0-8.4,5.9-14.5,14.5-14.5c7.8,0,13.6,5.5,13.6,14C88.7,28.6,88.7,29.2,88.6,30L88.6,30z M68.5,25.3
		h12.4c-0.5-3.4-2.5-5.3-5.7-5.3C71.3,20,69.2,22.2,68.5,25.3L68.5,25.3z"/>
	<path class="st0" d="M0,51.7c0-0.6,0.5-1.1,1.1-1.1c0.6,0,1.1,0.5,1.1,1.1c0,0.7-0.5,1.1-1.1,1.1C0.5,52.8,0,52.4,0,51.7L0,51.7z
		 M2,67.2H0.3V56H2V67.2z"/>
	<path class="st0" d="M17,60.7v6.4h-1.7v-6.4c0-2.3-1.4-3.7-3.4-3.7c-1.4,0-2.9,0.8-3.9,2.1v8H6.4V56H8v1.3c1-1.1,2.5-1.7,4.1-1.7
		C15,55.6,17,57.6,17,60.7L17,60.7z"/>
	<path class="st0" d="M27.8,67.1c-1,0.3-1.7,0.4-2.4,0.4c-2.5,0-3.9-1.5-3.9-4.4v-5.7h-3V56h3v-4.1h1.6V56h4.2v1.4h-4.2v5.7
		c0,2,0.8,2.9,2.5,2.9c0.6,0,1.3-0.1,1.9-0.3L27.8,67.1z"/>
	<path class="st0" d="M41.1,62.1L41.1,62.1L41.1,62.1h-9.6c0.2,2.2,1.7,4,4.2,4c1.6,0,2.7-0.7,3.2-1.7h1.8c-0.7,1.9-2.6,3.2-5.1,3.2
		c-3.4,0-5.8-2.6-5.8-5.9c0-3.3,2.4-5.9,5.8-5.9c3.2,0,5.5,2.5,5.5,5.9C41.1,61.8,41.1,61.9,41.1,62.1L41.1,62.1z M31.4,60.9h8
		c-0.2-2.3-1.6-3.9-3.8-3.9C33.2,57.1,31.7,58.8,31.4,60.9L31.4,60.9z"/>
	<path class="st0" d="M46,57.9c1-1.4,2.6-2.2,4.4-2.2v1.6c-1.8,0-3.4,1-4.4,2.6v7.3h-1.6V56H46V57.9z"/>
	<path class="st0" d="M63.1,56v11.2h-1.7v-1.2c-1,1-2.4,1.6-4,1.6c-3.2,0-5.8-2.6-5.8-5.9c0-3.3,2.6-5.9,5.8-5.9c1.7,0,3,0.6,4,1.6
		V56H63.1z M61.4,64v-4.8c-0.9-1.4-2.3-2-3.8-2c-2.5,0-4.3,2-4.3,4.4c0,2.4,1.9,4.5,4.3,4.5C59.1,66,60.4,65.4,61.4,64L61.4,64z"/>
	<path class="st0" d="M75.4,63.4h1.7c-0.5,2.4-2.6,4.1-5.3,4.1c-3.4,0-5.8-2.6-5.8-5.9c0-3.3,2.5-5.9,5.8-5.9c2.7,0,4.8,1.6,5.3,4
		h-1.7c-0.4-1.5-1.7-2.5-3.5-2.5c-2.5,0-4.2,2-4.2,4.4c0,2.4,1.6,4.4,4.2,4.4C73.6,66,75,65,75.4,63.4L75.4,63.4z"/>
	<path class="st0" d="M87.8,67.1c-1,0.3-1.7,0.4-2.4,0.4c-2.5,0-3.9-1.5-3.9-4.4v-5.7h-3V56h3v-4.1h1.6V56h4.2v1.4h-4.2v5.7
		c0,2,0.8,2.9,2.5,2.9c0.6,0,1.3-0.1,1.9-0.3L87.8,67.1z"/>
	<path class="st0" d="M90.5,51.7c0-0.6,0.5-1.1,1.1-1.1c0.6,0,1.1,0.5,1.1,1.1c0,0.7-0.5,1.1-1.1,1.1C91,52.8,90.5,52.4,90.5,51.7
		L90.5,51.7z M92.5,67.2h-1.7V56h1.7V67.2z"/>
	<polygon class="st0" points="101.9,67.2 100.4,67.2 95,56 96.8,56 101.1,65.1 105.4,56 107.2,56 	"/>
	<path class="st0" d="M119.4,62.1L119.4,62.1L119.4,62.1h-9.6c0.2,2.2,1.7,4,4.2,4c1.6,0,2.7-0.7,3.2-1.7h1.8
		c-0.7,1.9-2.6,3.2-5.1,3.2c-3.4,0-5.8-2.6-5.8-5.9c0-3.3,2.4-5.9,5.8-5.9c3.2,0,5.5,2.5,5.5,5.9C119.4,61.8,119.4,61.9,119.4,62.1
		L119.4,62.1z M109.7,60.9h8c-0.2-2.3-1.6-3.9-3.8-3.9C111.5,57.1,110,58.8,109.7,60.9L109.7,60.9z"/>
	<path class="st1" d="M119.3,21.1c0,0-0.1-0.1-0.2-0.1h0c-0.4,0-0.9,0.1-1.5,0.2c-1.3,0.2-2.8,0.3-4.2,0.3c-2.7,0-4.4-0.7-5.3-2
		c-1.8-2.8,1.9-10.2,4.2-14.6c0.5-1,1-1.9,1.3-2.7c0.1-0.1,0-0.3-0.2-0.3c0,0-0.1,0-0.1,0c-0.1,0-0.2,0.1-0.2,0.1
		c-0.3,0.5-0.6,1.1-0.9,1.7l-0.1,0.1c-2.3,4.5-5.2,10.2-10.2,11c-0.1,0-0.1,0-0.2,0c-0.3,0-0.6,0.1-0.8,0.1c-3.6,0-7.6-2.9-12.1-9
		c0-0.1-0.1-0.1-0.2-0.1c-0.1,0-0.1,0-0.2,0.1c-0.1,0.1-0.1,0.2-0.1,0.3c4.9,7.2,8.9,13.9,9.5,21.7c0.4,5.5,0.2,9.7-0.6,14.3
		c0,0.1,0,0.1,0.1,0.2c0,0.1,0.1,0.1,0.2,0.1h0c0.1,0,0.2-0.1,0.2-0.2c1.1-5.2,2.2-9.5,5.3-13.7c3.8-5.2,9.2-6,15.5-7l0.5-0.1
		c0.1,0,0.2-0.1,0.2-0.3C119.4,21.2,119.4,21.1,119.3,21.1L119.3,21.1z"/>
	<path class="st0" d="M115.4,2c0,1.1-0.9,2-2,2c-1.1,0-2-0.9-2-2c0-1.1,0.9-2,2-2C114.5,0,115.4,0.9,115.4,2L115.4,2z"/>
</g>
</svg>
